<svg width="26" height="39" viewBox="0 0 26 39" fill="none" xmlns="http://www.w3.org/2000/svg">
<g clip-path="url(#clip0_134_144877)">
<g clip-path="url(#clip1_134_144877)">
<path d="M0.318237 37.9536V29.8376H1.29211V37.0725H5.52918V37.9536H0.318237Z" fill="#151218"/>
<path d="M6.51886 37.9536V29.8376H11.5161V30.7187H7.49274V33.4336H10.7533V34.3147H7.49274V37.0743H11.5739V37.9553L6.51886 37.9536Z" fill="#151218"/>
<path d="M12.5241 37.9536V29.8376H14.5892L17.418 37.3397H17.7438V29.8376H18.7072V37.9536H16.6412L13.8238 30.4419H13.4866V37.9545L12.5241 37.9536Z" fill="#151218"/>
<path d="M22.8271 38.1156C22.2854 38.1246 21.748 38.018 21.2507 37.8029C20.7993 37.6045 20.4176 37.2754 20.1551 36.8579C19.8889 36.4364 19.7555 35.9089 19.7549 35.2754V35.0319H20.7183V35.2754C20.7183 35.948 20.9153 36.4484 21.3094 36.7765C21.7035 37.1046 22.2094 37.2701 22.8271 37.2731C23.4606 37.2731 23.9435 37.13 24.2757 36.8439C24.435 36.7136 24.5626 36.5489 24.6491 36.3622C24.7355 36.1755 24.7786 35.9716 24.7749 35.7658C24.7889 35.5066 24.7083 35.2511 24.5481 35.0468C24.3758 34.8523 24.1592 34.7021 23.9166 34.6089C23.6095 34.485 23.2929 34.386 22.9699 34.3129L22.3674 34.1623C21.936 34.0533 21.5165 33.9019 21.115 33.7104C20.7761 33.5529 20.4828 33.3118 20.2628 33.0097C20.0579 32.7178 19.9554 32.3447 19.9554 31.8905C19.9449 31.4705 20.0645 31.0575 20.2979 30.7081C20.5385 30.3655 20.873 30.0997 21.2612 29.9427C21.7157 29.7585 22.2029 29.6691 22.6932 29.68C23.2002 29.6719 23.7035 29.7685 24.1715 29.9637C24.5853 30.1369 24.9413 30.4243 25.1979 30.7922C25.4496 31.1601 25.5751 31.6219 25.5745 32.1777V32.6647H24.6111V32.1777C24.6111 31.7836 24.5282 31.4669 24.3624 31.2275C24.1931 30.9851 23.9548 30.7992 23.6784 30.6941C23.3622 30.5728 23.0257 30.5133 22.687 30.519C22.154 30.519 21.7248 30.6357 21.3996 30.8693C21.0744 31.1028 20.9121 31.4371 20.9127 31.8721C20.9013 32.1208 20.9748 32.366 21.1211 32.5674C21.2787 32.7607 21.4822 32.9112 21.7131 33.0053C22.0087 33.131 22.315 33.2298 22.6283 33.3005L23.2318 33.452C23.6689 33.5409 24.0947 33.679 24.5008 33.8636C24.8546 34.0204 25.1636 34.2634 25.3993 34.5704C25.6235 34.8681 25.7356 35.2567 25.7356 35.7361C25.7456 36.18 25.6204 36.6164 25.3766 36.9876C25.1234 37.354 24.7718 37.6415 24.3624 37.8169C23.8777 38.0245 23.3543 38.1263 22.8271 38.1156V38.1156Z" fill="#151218"/>
<path d="M13.0358 19.2099C12.7783 19.2099 6.66793 19.1565 1.99385 14.4806C1.89489 14.3825 1.79855 14.2827 1.70396 14.1829C0.724832 13.1512 0.260663 11.9233 0.358752 10.6333C0.446331 9.49477 0.971804 8.39215 1.83446 7.52687C2.69711 6.66159 3.80323 6.13787 4.94088 6.05117C6.13283 5.96359 7.27223 6.35068 8.25399 7.18268C8.35996 5.90053 8.88894 4.81805 9.79625 4.04035C10.6624 3.29681 11.8106 2.88782 13.0367 2.88782C14.2628 2.88782 15.4109 3.29681 16.2771 4.04035C17.1835 4.81893 17.7134 5.90053 17.8194 7.18268C18.8011 6.35068 19.9405 5.95658 21.1325 6.05117C22.271 6.13874 23.3736 6.66422 24.238 7.52687C25.1024 8.38952 25.6279 9.49564 25.7137 10.6333C25.8127 11.9233 25.3476 13.1512 24.3694 14.1846C24.2748 14.2845 24.1785 14.3843 24.0795 14.4824C19.4045 19.1565 13.2942 19.2099 13.0358 19.2099ZM5.27893 7.0084C4.21923 7.0084 3.22433 7.50147 2.5167 8.20823C1.24505 9.48076 0.667029 11.686 2.40459 13.5225C2.49334 13.6165 2.58384 13.7096 2.67609 13.8019C7.0708 18.1957 12.978 18.2465 13.0367 18.2465C13.0953 18.2465 19.0148 18.1852 23.3981 13.8019C23.491 13.7091 23.5815 13.6159 23.6696 13.5225C25.4072 11.6834 24.8292 9.48076 23.5575 8.20823C22.2859 6.93571 20.0798 6.35769 18.2406 8.09613C18.1466 8.18429 18.0535 8.27479 17.9612 8.36763C17.8903 8.43857 17.8211 8.51126 17.7528 8.58395L16.8393 9.55257L16.8753 8.22312C16.8753 8.12153 16.8814 8.02082 16.8814 7.91835C16.8814 7.78698 16.8814 7.65561 16.8761 7.52862C16.8061 5.00197 14.8382 3.85031 13.0384 3.85031C11.2387 3.85031 9.27253 5.00109 9.20159 7.52862C9.20159 7.65736 9.19634 7.79136 9.19634 7.91835C9.19634 8.01819 9.19634 8.11628 9.20159 8.21524L9.2375 9.55257L8.32318 8.5892C8.25399 8.51563 8.18393 8.44207 8.11211 8.36938C8.01928 8.27654 7.92615 8.18605 7.83273 8.09788C7.01387 7.32106 6.12495 7.0084 5.27893 7.0084Z" fill="#151218"/>
<path d="M12.4183 14.1076H11.7177C11.7177 13.0645 10.7018 12.215 9.45464 12.215C8.20751 12.215 7.1916 13.0645 7.1916 14.1076H6.49097C6.49097 12.6775 7.82041 11.5144 9.45464 11.5144C11.0889 11.5144 12.4183 12.6775 12.4183 14.1076Z" fill="#151218"/>
<path d="M19.5418 14.0787H18.8412C18.8412 13.0356 17.8262 12.187 16.5782 12.187C15.3302 12.187 14.3151 13.0356 14.3151 14.0787H13.6145C13.6145 12.6494 14.944 11.4863 16.5782 11.4863C18.2124 11.4863 19.5418 12.6494 19.5418 14.0787Z" fill="#151218"/>
<path d="M10.2611 14.1225C10.8179 14.1225 11.2692 13.6712 11.2692 13.1145C11.2692 12.5578 10.8179 12.1064 10.2611 12.1064C9.70442 12.1064 9.25311 12.5578 9.25311 13.1145C9.25311 13.6712 9.70442 14.1225 10.2611 14.1225Z" fill="#151218"/>
<path d="M17.3376 14.1225C17.8943 14.1225 18.3457 13.6712 18.3457 13.1145C18.3457 12.5578 17.8943 12.1064 17.3376 12.1064C16.7809 12.1064 16.3296 12.5578 16.3296 13.1145C16.3296 13.6712 16.7809 14.1225 17.3376 14.1225Z" fill="#151218"/>
<path d="M13.0332 16.6834C12.2074 16.6834 11.4419 16.2586 11.0846 15.6018L11.6976 15.2672C11.935 15.7051 12.4578 15.9827 13.0315 15.9827C13.6051 15.9827 14.1288 15.7016 14.3653 15.2672L14.9784 15.6018C14.6245 16.2586 13.8617 16.6834 13.0332 16.6834Z" fill="#151218"/>
<path d="M25.5892 26.3949C23.8336 27.217 21.8546 27.4326 19.9631 27.008C18.3975 26.6609 16.9602 25.8827 15.8137 24.7616C16.5395 25.0624 17.3181 25.2154 18.1038 25.2117C19.4624 25.212 20.7874 24.7896 21.8951 24.0031L21.3329 23.2202C19.8169 24.3114 17.7316 24.5742 16.086 23.8306C14.4623 23.0993 13.5462 21.5343 13.4876 19.4123V18.7283H12.5242V18.8491V19.407C12.4681 21.5317 11.5503 23.0985 9.92485 23.8306C8.27925 24.5724 6.19049 24.3132 4.678 23.2176L4.11662 24.0005C5.22365 24.7873 6.548 25.2103 7.90616 25.2109C8.69191 25.2147 9.47052 25.0617 10.1963 24.7607C9.0501 25.8818 7.61308 26.66 6.04774 27.0071C4.15626 27.4318 2.17728 27.2162 0.42167 26.394L0.0109253 27.2655C1.30023 27.8706 2.70724 28.1837 4.13151 28.1824C4.84713 28.1827 5.56058 28.1037 6.2588 27.9468C8.4013 27.4712 10.3152 26.2737 11.6799 24.5549L11.6861 24.547C12.0063 24.1269 12.2874 23.6784 12.5259 23.2071V28.1649H13.4893V23.2141C13.7275 23.6831 14.0077 24.1295 14.3266 24.5479L14.3327 24.5558C15.6972 26.2743 17.6108 27.4718 19.753 27.9477C20.4512 28.1045 21.1646 28.1835 21.8802 28.1833C23.3048 28.1846 24.7121 27.8715 26.0017 27.2663L25.5892 26.3949Z" fill="#151218"/>
</g>
</g>
<defs>
<clipPath id="clip0_134_144877">
<rect width="25.9908" height="38.5049" fill="white" transform="translate(0.00921631)"/>
</clipPath>
<clipPath id="clip1_134_144877">
<rect width="25.9908" height="35.2286" fill="white" transform="translate(0.00921631 2.88782)"/>
</clipPath>
</defs>
</svg>
